HIERARCHY
ROOT Hips
{
	OFFSET -0.001795 -0.223333 0.028219
	CHANNELS 6 Xposition Yposition Zposition Zrotation Yrotation Xrotation
	JOINT LeftUpLeg
	{
		OFFSET 0.069520 -0.091406 -0.006815
		CHANNELS 3 Zrotation Yrotation Xrotation
		JOINT LeftLeg
		{
			OFFSET 0.034277 -0.375199 -0.004496
			CHANNELS 3 Zrotation Yrotation Xrotation
			JOINT LeftFoot
			{
				OFFSET -0.013596 -0.397961 -0.043693
				CHANNELS 3 Zrotation Yrotation Xrotation
				JOINT LeftToe
				{
					OFFSET 0.026358 -0.055791 0.119288
					CHANNELS 3 Zrotation Yrotation Xrotation
					End Site
					{
						OFFSET 0.000000 0.000000 0.000000
					}
				}
			}
		}
	}
	JOINT RightUpLeg
	{
		OFFSET -0.067670 -0.090522 -0.004320
		CHANNELS 3 Zrotation Yrotation Xrotation
		JOINT RightLeg
		{
			OFFSET -0.038290 -0.382569 -0.008850
			CHANNELS 3 Zrotation Yrotation Xrotation
			JOINT RightFoot
			{
				OFFSET 0.015774 -0.398415 -0.042312
				CHANNELS 3 Zrotation Yrotation Xrotation
				JOINT RightToe
				{
					OFFSET -0.025372 -0.048144 0.123348
					CHANNELS 3 Zrotation Yrotation Xrotation
					End Site
					{
						OFFSET 0.000000 0.000000 0.000000
					}
				}
			}
		}
	}
	JOINT Spine
	{
		OFFSET -0.002533 0.108963 -0.026696
		CHANNELS 3 Zrotation Yrotation Xrotation
		JOINT Spine1
		{
			OFFSET 0.005487 0.135180 0.001092
			CHANNELS 3 Zrotation Yrotation Xrotation
			JOINT Spine2
			{
				OFFSET 0.001457 0.052922 0.025425
				CHANNELS 3 Zrotation Yrotation Xrotation
				JOINT Neck
				{
					OFFSET -0.002778 0.213870 -0.042857
					CHANNELS 3 Zrotation Yrotation Xrotation
					JOINT Head
					{
						OFFSET 0.005152 0.064970 0.051349
						CHANNELS 3 Zrotation Yrotation Xrotation
						End Site
						{
							OFFSET 0.000000 0.000000 0.000000
						}
					}
				}
				JOINT LeftShoulder
				{
					OFFSET 0.078845 0.121749 -0.034090
					CHANNELS 3 Zrotation Yrotation Xrotation
					JOINT LeftArm
					{
						OFFSET 0.090977 0.030469 -0.008868
						CHANNELS 3 Zrotation Yrotation Xrotation
						JOINT LeftForeArm
						{
							OFFSET 0.259612 -0.012772 -0.027456
							CHANNELS 3 Zrotation Yrotation Xrotation
							JOINT LeftHand
							{
								OFFSET 0.249234 0.008986 -0.001171
								CHANNELS 3 Zrotation Yrotation Xrotation
								End Site
								{
									OFFSET 0.000000 0.000000 0.000000
								}
							}
						}
					}
				}
				JOINT RightShoulder
				{
					OFFSET -0.081759 0.118833 -0.038615
					CHANNELS 3 Zrotation Yrotation Xrotation
					JOINT RightArm
					{
						OFFSET -0.096012 0.032551 -0.009143
						CHANNELS 3 Zrotation Yrotation Xrotation
						JOINT RightForeArm
						{
							OFFSET -0.253742 -0.013329 -0.021401
							CHANNELS 3 Zrotation Yrotation Xrotation
							JOINT RightHand
							{
								OFFSET -0.255298 0.007772 -0.005559
								CHANNELS 3 Zrotation Yrotation Xrotation
								End Site
								{
									OFFSET 0.000000 0.000000 0.000000
								}
							}
						}
					}
				}
			}
		}
	}
}
MOTION
Frames: 14
Frame Time: 0.050000
-0.053832 0.169779 0.868023 -9.115733 4.030271 -103.518710 68.601399 15.827892 -73.492807 -33.988347 40.061343 128.654573 4.532041 22.326666 -85.888656 0.000000 0.000000 0.000000 29.756869 18.576838 -101.569852 73.816375 65.045810 -97.500681 -4.200456 -26.180619 -94.884405 0.000000 0.000000 0.000000 11.667480 9.217720 -68.701447 -37.202509 38.830170 95.424208 30.305165 18.946132 6.336467 1.931750 7.804977 -19.043662 0.000000 0.000000 0.000000 -4.705433 -9.744074 5.640157 -75.706374 13.304458 -29.532993 -174.814708 -33.567781 178.983264 0.000000 0.000000 0.000000 -46.184053 0.432542 -9.764198 85.666852 26.732354 26.809118 -109.267611 34.246800 -30.033640 0.000000 0.000000 0.000000
-0.068115 0.156571 0.902488 -9.326686 1.878735 -99.309305 39.238809 7.294858 -83.209849 -21.888407 28.811563 141.003879 3.746275 27.307294 -62.545448 0.000000 0.000000 0.000000 10.828128 9.327789 -88.459678 0.781328 -12.513436 -178.224047 8.197945 -34.958793 -97.819941 0.000000 0.000000 0.000000 4.461001 6.489831 -57.965166 -23.830350 25.292174 101.249309 27.423116 10.172708 -7.481131 -1.712107 4.832642 -17.452738 0.000000 0.000000 0.000000 -9.242526 -9.115608 3.076128 -86.064236 2.177701 -19.831178 178.750968 -51.881877 -160.915154 0.000000 0.000000 0.000000 -38.725828 -4.242983 -1.700898 94.689471 29.729817 21.981137 -114.684167 53.994899 -65.557873 0.000000 0.000000 0.000000
-0.082645 0.154652 0.930615 -8.867591 -2.685624 -95.539697 22.004314 1.177134 -77.216826 -14.211164 4.451532 145.032447 5.437546 15.108892 -38.031900 0.000000 0.000000 0.000000 -2.069854 3.649561 -70.984055 -4.525326 39.438512 161.107194 -14.578858 5.714092 -47.487305 0.000000 0.000000 0.000000 2.526464 7.149100 -50.247670 -15.701447 11.640295 99.013220 23.529201 1.959564 -17.121246 -4.219565 3.894103 -16.072331 0.000000 0.000000 0.000000 -15.895554 -7.353437 3.121132 -84.345950 -1.718345 -11.980462 158.789535 -60.297070 -128.497415 0.000000 0.000000 0.000000 -32.790060 -8.505781 1.960510 96.642398 22.032140 7.253347 -157.151733 67.783471 -138.156808 0.000000 0.000000 0.000000
-0.095708 0.159395 0.955249 -9.060621 -4.476308 -90.145281 14.996598 -0.791243 -71.551335 -11.532643 -4.155043 140.311157 6.274981 15.325527 -27.656103 0.000000 0.000000 0.000000 -5.317533 2.849675 -63.842000 -5.086762 20.149563 149.310806 -4.141721 2.170985 -17.388098 0.000000 0.000000 0.000000 -1.805206 3.680465 -45.105434 -9.376418 3.534447 97.014597 18.785438 1.623466 -26.074761 -5.151338 3.930301 -14.559108 0.000000 0.000000 0.000000 -13.283766 -3.006192 1.112621 -89.477406 -0.623374 -10.932736 144.489080 -66.987730 -117.106519 0.000000 0.000000 0.000000 -28.574755 -11.553307 2.285248 94.766774 10.818417 -3.974086 167.556152 65.886079 166.341382 0.000000 0.000000 0.000000
-0.106628 0.161666 0.976788 -8.799094 -6.747203 -86.168400 11.828104 0.159549 -63.112524 -7.169987 -14.584651 132.206659 6.064146 9.202664 -30.298190 0.000000 0.000000 0.000000 -9.241245 1.239905 -57.957394 -0.864732 3.623349 135.322317 -3.994726 -5.785222 -13.095244 0.000000 0.000000 0.000000 -1.715156 3.969249 -41.500178 -5.473848 -0.640472 91.560431 16.655163 -2.621754 -28.845260 -5.078306 3.344489 -14.178832 0.000000 0.000000 0.000000 -11.151580 2.311128 -0.954383 -91.217182 2.800151 -11.120777 151.491117 -68.933826 -128.076089 0.000000 0.000000 0.000000 -25.893554 -14.217039 2.684087 89.187114 4.127438 -10.803808 157.283362 57.397179 142.470008 0.000000 0.000000 0.000000
-0.115846 0.165055 0.995844 -9.284849 -7.519808 -83.689279 11.120065 0.458645 -60.318430 -4.032962 -19.614076 125.921673 5.355025 4.134179 -28.160521 0.000000 0.000000 0.000000 -10.703175 0.523186 -57.870954 0.144282 2.954421 130.624743 -2.459232 -4.566818 -5.721648 0.000000 0.000000 0.000000 -4.714648 1.468231 -39.933726 -2.023801 -6.265085 87.205806 11.472610 -2.201352 -28.570183 -3.745311 2.455106 -14.765586 0.000000 0.000000 0.000000 -12.200035 2.696817 -1.358713 -90.663279 5.146730 -12.959973 156.043290 -65.997908 -133.368279 0.000000 0.000000 0.000000 -22.275975 -14.520433 1.547930 82.949339 -1.551528 -13.065465 161.861505 55.381965 148.699891 0.000000 0.000000 0.000000
-0.123034 0.168928 1.010296 -8.260213 -7.828143 -82.631400 11.608827 1.800977 -54.527621 -1.268598 -22.151297 117.365971 4.847817 -0.761526 -29.067245 0.000000 0.000000 0.000000 -11.085969 0.682692 -55.794545 -0.651326 6.602431 126.738020 -0.838079 -1.021093 -2.546569 0.000000 0.000000 0.000000 -3.529294 2.402082 -38.756291 -1.785613 -4.471193 85.107576 11.994665 -2.549809 -30.909313 -2.871385 1.960889 -12.259934 0.000000 0.000000 0.000000 -15.291667 3.096117 -1.656883 -86.924181 7.561035 -13.824311 161.676510 -62.815928 -139.117650 0.000000 0.000000 0.000000 -22.886443 -15.399300 1.786212 80.324643 -4.441431 -14.029201 162.199063 54.114441 148.500235 0.000000 0.000000 0.000000
-0.128766 0.171105 1.018892 -8.025302 -7.101079 -83.046878 10.842253 1.684279 -47.902245 1.469307 -24.215425 109.219618 4.000103 -6.111392 -29.415786 0.000000 0.000000 0.000000 -11.207617 0.314659 -53.002257 -4.053462 14.595911 124.814433 2.818729 7.176187 1.144956 0.000000 0.000000 0.000000 -4.799079 1.154291 -37.983840 -3.037915 -0.647561 81.943233 15.803339 -2.206727 -27.921754 -3.389747 2.115384 -11.946747 0.000000 0.000000 0.000000 -21.454065 3.389860 -1.611067 -80.461458 6.381407 -12.119788 164.760378 -57.963769 -138.223269 0.000000 0.000000 0.000000 -22.712027 -13.614784 2.036407 79.654530 -1.932049 -12.458710 170.349124 54.163397 164.699819 0.000000 0.000000 0.000000
-0.132647 0.172871 1.022078 -6.741993 -5.552828 -83.334552 8.567385 0.330181 -46.361628 4.157829 -27.571240 107.623448 1.152764 -14.953958 -26.073443 0.000000 0.000000 0.000000 -9.582353 1.201765 -55.111830 -9.119774 27.194198 128.029774 9.506919 20.171466 7.010208 0.000000 0.000000 0.000000 -7.410043 -1.074555 -42.740424 -4.086104 1.005787 78.580587 15.289155 -2.907473 -19.306471 -3.876772 2.356632 -13.022099 0.000000 0.000000 0.000000 -26.060220 4.745855 -2.346665 -73.845547 3.474886 -11.058812 168.215098 -54.172713 -139.749481 0.000000 0.000000 0.000000 -22.785990 -11.009310 1.862488 78.935700 1.196175 -11.158931 174.916693 47.610940 174.529839 0.000000 0.000000 0.000000
-0.136355 0.175760 1.021967 -7.522786 -6.141852 -82.148166 8.691982 0.482329 -46.532396 3.979263 -26.352385 105.777478 0.327422 -13.471718 -21.796736 0.000000 0.000000 0.000000 -8.191625 2.241362 -55.060209 -9.636328 28.065019 129.458235 10.454014 19.821488 9.534542 0.000000 0.000000 0.000000 -10.312791 -3.092620 -44.713252 -1.926953 -2.821785 79.537364 10.815868 -0.257854 -21.129965 1.212985 -0.888191 -8.703649 0.000000 0.000000 0.000000 -30.201869 -0.724759 0.330755 -66.772413 2.462142 -9.645634 169.550180 -51.485027 -142.092160 0.000000 0.000000 0.000000 -19.791668 -12.049092 0.596282 75.870053 -3.011232 -11.511301 178.492903 42.857668 -175.213044 0.000000 0.000000 0.000000
-0.139905 0.173755 1.019407 -7.024412 -5.479448 -82.668360 8.485441 0.194571 -47.123266 2.914576 -25.110786 106.524207 -1.567232 -15.573437 -17.550450 0.000000 0.000000 0.000000 -8.039269 2.230879 -56.023053 -9.855413 30.922817 132.570844 13.224997 24.078128 12.214661 0.000000 0.000000 0.000000 -12.771384 -5.221452 -45.354889 -1.627335 -2.753926 77.718389 10.319340 1.651471 -18.377256 2.001939 -1.618639 -6.562588 0.000000 0.000000 0.000000 -32.280130 -3.486042 2.029703 -60.668012 2.814568 -9.354105 170.838540 -49.331225 -143.310855 0.000000 0.000000 0.000000 -20.227210 -11.787373 0.318755 75.340483 -6.969681 -13.592274 178.865655 35.483486 -171.159157 0.000000 0.000000 0.000000
-0.143636 0.174961 1.015158 -5.913008 -6.768331 -83.518171 11.048266 2.093925 -47.307823 0.317442 -20.869461 106.780743 -1.721746 -11.001063 -11.871221 0.000000 0.000000 0.000000 -7.182107 3.439986 -55.234427 -6.510870 25.301319 136.631861 10.652146 20.288735 9.913448 0.000000 0.000000 0.000000 -12.012639 -4.048467 -45.729574 -0.557902 -3.703413 77.136026 8.500431 1.265388 -18.551051 3.109854 -2.646594 -3.484427 0.000000 0.000000 0.000000 -36.753678 -7.548819 4.948956 -53.527663 4.507038 -9.094948 172.509980 -51.150182 -148.844558 0.000000 0.000000 0.000000 -19.076472 -10.819695 0.083635 74.299139 -12.094426 -16.281403 178.792971 32.623309 -170.119539 0.000000 0.000000 0.000000
-0.146537 0.175784 1.009102 -5.939340 -7.502296 -83.093807 11.777532 2.570821 -49.044552 -0.873188 -18.040636 108.021056 -0.604135 -6.946601 -10.319550 0.000000 0.000000 0.000000 -7.210091 3.606338 -54.601019 -2.581320 16.136173 139.286745 5.448028 11.671989 4.898703 0.000000 0.000000 0.000000 -12.910131 -4.595406 -47.083461 1.151429 -6.365400 79.541603 6.016826 1.321435 -19.126939 4.850140 -4.266984 -1.588901 0.000000 0.000000 0.000000 -37.651075 -7.950731 5.148200 -49.089954 5.474381 -8.802494 175.158177 -52.731224 -155.678730 0.000000 0.000000 0.000000 -16.620563 -10.636974 -0.310266 74.960954 -14.576936 -18.148208 -179.692156 32.094745 -164.743045 0.000000 0.000000 0.000000
-0.148064 0.176682 1.002233 -5.687490 -8.008634 -83.765596 12.508850 3.143879 -49.160248 -2.602277 -15.094549 109.395377 -0.066374 -5.716929 -10.599671 0.000000 0.000000 0.000000 -6.606233 3.837567 -50.763230 -0.269645 8.867107 138.400469 0.395422 6.991843 -7.321718 0.000000 0.000000 0.000000 -12.711960 -4.337030 -46.868716 1.851791 -6.978807 78.017853 5.400202 0.753274 -17.380267 2.631845 -2.959281 2.678007 0.000000 0.000000 0.000000 -37.511659 -8.578416 6.129711 -47.462935 6.298752 -9.021900 179.111641 -56.472689 -163.822246 0.000000 0.000000 0.000000 -11.365706 -9.627881 -1.099621 73.700084 -17.339458 -19.622526 177.101796 31.795528 -176.394102 0.000000 0.000000 0.000000
